<svg xmlns="http://www.w3.org/2000/svg" width="32" height="32" viewBox="0 0 32 32">
<path d="M16 2 L27 7 V18 C27 25 22 29 16 30 C10 29 5 25 5 18 V7 Z" fill="#1E3A5F"/>
<path d="M16 4 L25 8 V18 C25 24 21 27 16 28 C11 27 7 24 7 18 V8 Z" fill="#0B1220"/>
<ellipse cx="16" cy="5.5" rx="4" ry="1" fill="none" stroke="#FACC15" stroke-width="1"/>
<path d="M5 14 C3 12 1 11 1 13 C1 15 3 16 5 16 Z" fill="#CBD5E1" opacity="0.8"/>
<path d="M27 14 C29 12 31 11 31 13 C31 15 29 16 27 16 Z" fill="#CBD5E1" opacity="0.8"/>
<g transform="translate(16, 15)">
<path d="M0 -6 L5 -2 L4 3 L2 5 L0 6 L-2 5 L-4 3 L-5 -2 Z" fill="#F97316"/>
<path d="M-5 -2 L-6 -6 L-2 -4 Z" fill="#FDBA74"/>
<path d="M5 -2 L6 -6 L2 -4 Z" fill="#FDBA74"/>
<rect x="-3.5" y="-3" width="3" height="2" rx="0.5" fill="#0B1220"/>
<rect x="0.5" y="-3" width="3" height="2" rx="0.5" fill="#0B1220"/>
<circle cx="-2" cy="-2" r="1" fill="#38BDF8"/>
<circle cx="2" cy="-2" r="1" fill="#38BDF8"/>
<path d="M-1 2 Q0 3 1 2" fill="none" stroke="#0B1220" stroke-width="0.75" stroke-linecap="round"/>
</g>
<g transform="translate(16, 24)" opacity="0.7">
<ellipse cx="0" cy="0" rx="4" ry="2" fill="none" stroke="#38BDF8" stroke-width="0.75"/>
<circle cx="0" cy="0" r="1.2" fill="#38BDF8"/>
<circle cx="0" cy="0" r="0.5" fill="#0B1220"/>
</g>
</svg>
