<svg xmlns="http://www.w3.org/2000/svg" width="512" height="512" viewBox="0 0 512 512">
<defs>
<linearGradient id="shieldG" x1="0.5" y1="0" x2="0.5" y2="1">
<stop offset="0%" stop-color="#1E3A5F"/>
<stop offset="100%" stop-color="#0B1220"/>
</linearGradient>
<linearGradient id="foxG" x1="0.5" y1="0" x2="0.5" y2="1">
<stop offset="0%" stop-color="#FDBA74"/>
<stop offset="100%" stop-color="#F97316"/>
</linearGradient>
<linearGradient id="wingL" x1="1" y1="0.3" x2="0" y2="0.7">
<stop offset="0%" stop-color="#CBD5E1"/>
<stop offset="100%" stop-color="#94A3B8"/>
</linearGradient>
<linearGradient id="wingR" x1="0" y1="0.3" x2="1" y2="0.7">
<stop offset="0%" stop-color="#CBD5E1"/>
<stop offset="100%" stop-color="#94A3B8"/>
</linearGradient>
<linearGradient id="haloG" x1="0.5" y1="0" x2="0.5" y2="1">
<stop offset="0%" stop-color="#FACC15"/>
<stop offset="100%" stop-color="#EAB308"/>
</linearGradient>
</defs>
<path d="M256 52 L408 124 V280 C408 388 336 448 256 472 C176 448 104 388 104 280 V124 Z" fill="url(#shieldG)" stroke="#1E3A5F" stroke-width="4"/>
<path d="M256 68 L396 136 V280 C396 380 328 436 256 458 C184 436 116 380 116 280 V136 Z" fill="#0B1220" stroke="#1E3A5F" stroke-width="1.5"/>
<path d="M256 84 L384 148 V280 C384 372 320 424 256 444 C192 424 128 372 128 280 V148 Z" fill="none" stroke="#1E3A5F" stroke-width="0.75" opacity="0.5"/>
<ellipse cx="256" cy="100" rx="52" ry="10" fill="none" stroke="url(#haloG)" stroke-width="5" opacity="0.9"/>
<ellipse cx="256" cy="100" rx="52" ry="10" fill="none" stroke="#FACC15" stroke-width="2" opacity="0.4"/>
<g>
<path d="M104 220 C100 200 80 170 52 160 C36 156 20 158 12 168 C4 178 8 194 18 206 C32 224 56 232 72 238 C82 242 94 240 100 234 Z" fill="url(#wingL)"/>
<path d="M100 234 C92 224 68 204 40 200 C24 198 12 204 8 216 C4 228 12 242 24 250 C40 262 64 264 80 262 C90 260 98 252 100 244 Z" fill="url(#wingL)" opacity="0.85"/>
<path d="M98 252 C88 246 64 236 38 238 C24 240 14 250 14 262 C14 274 24 284 38 288 C54 292 76 286 90 278 C98 272 100 262 98 256 Z" fill="url(#wingL)" opacity="0.7"/>
<path d="M100 220 L72 238" stroke="#E2E8F0" stroke-width="0.75" opacity="0.5"/>
<path d="M96 234 L80 262" stroke="#E2E8F0" stroke-width="0.75" opacity="0.5"/>
</g>
<g>
<path d="M408 220 C412 200 432 170 460 160 C476 156 492 158 500 168 C508 178 504 194 494 206 C480 224 456 232 440 238 C430 242 418 240 412 234 Z" fill="url(#wingR)"/>
<path d="M412 234 C420 224 444 204 472 200 C488 198 500 204 504 216 C508 228 500 242 488 250 C472 262 448 264 432 262 C422 260 414 252 412 244 Z" fill="url(#wingR)" opacity="0.85"/>
<path d="M414 252 C424 246 448 236 474 238 C488 240 498 250 498 262 C498 274 488 284 474 288 C458 292 436 286 422 278 C414 272 412 262 414 256 Z" fill="url(#wingR)" opacity="0.7"/>
<path d="M412 220 L440 238" stroke="#E2E8F0" stroke-width="0.75" opacity="0.5"/>
<path d="M416 234 L432 262" stroke="#E2E8F0" stroke-width="0.75" opacity="0.5"/>
</g>
<g transform="translate(256, 240)">
<path d="M0 -72 L60 -28 L52 28 L28 56 L0 68 L-28 56 L-52 28 L-60 -28 Z" fill="url(#foxG)"/>
<path d="M0 -72 L-60 -28 L-36 -32 L0 -52 Z" fill="#FDBA74"/>
<path d="M0 -72 L60 -28 L36 -32 L0 -52 Z" fill="#FDBA74"/>
<path d="M-60 -28 L-72 -76 L-28 -44 Z" fill="url(#foxG)"/>
<path d="M60 -28 L72 -76 L28 -44 Z" fill="url(#foxG)"/>
<path d="M-68 -72 L-58 -30 L-30 -42 Z" fill="#EA580C" opacity="0.4"/>
<path d="M68 -72 L58 -30 L30 -42 Z" fill="#EA580C" opacity="0.4"/>
<path d="M0 -52 L-36 -32 L-52 28 L-28 56 L0 68 L28 56 L52 28 L36 -32 Z" fill="#F97316" opacity="0.15"/>
<path d="M-36 -20 L-20 -24 L-14 -8 L-24 -4 Z" fill="#0B1220"/>
<path d="M36 -20 L20 -24 L14 -8 L24 -4 Z" fill="#0B1220"/>
<circle cx="-22" cy="-14" r="6" fill="#38BDF8"/>
<circle cx="22" cy="-14" r="6" fill="#38BDF8"/>
<circle cx="-20" cy="-15" r="2.5" fill="#E0F2FE"/>
<circle cx="24" cy="-15" r="2.5" fill="#E0F2FE"/>
<path d="M-12 12 L0 8 L12 12" fill="none" stroke="#0B1220" stroke-width="2.5" stroke-linecap="round"/>
<path d="M0 8 L0 20" fill="none" stroke="#0B1220" stroke-width="2" stroke-linecap="round"/>
<path d="M-8 20 Q0 28 8 20" fill="none" stroke="#0B1220" stroke-width="2" stroke-linecap="round"/>
<path d="M-52 28 L-68 20" stroke="#F97316" stroke-width="1.5" stroke-linecap="round" opacity="0.6"/>
<path d="M-52 32 L-72 30" stroke="#F97316" stroke-width="1.5" stroke-linecap="round" opacity="0.6"/>
<path d="M-52 36 L-68 40" stroke="#F97316" stroke-width="1.5" stroke-linecap="round" opacity="0.6"/>
<path d="M52 28 L68 20" stroke="#F97316" stroke-width="1.5" stroke-linecap="round" opacity="0.6"/>
<path d="M52 32 L72 30" stroke="#F97316" stroke-width="1.5" stroke-linecap="round" opacity="0.6"/>
<path d="M52 36 L68 40" stroke="#F97316" stroke-width="1.5" stroke-linecap="round" opacity="0.6"/>
</g>
<g transform="translate(256, 370)" opacity="0.8">
<path d="M-32 0 C-32 -10 -20 -18 0 -18 C20 -18 32 -10 32 0 C32 10 20 18 0 18 C-20 18 -32 10 -32 0 Z" fill="none" stroke="#38BDF8" stroke-width="2.5"/>
<circle cx="0" cy="0" r="8" fill="#38BDF8" opacity="0.9"/>
<circle cx="0" cy="0" r="4" fill="#0B1220"/>
<circle cx="2" cy="-2" r="1.5" fill="#E0F2FE"/>
<path d="M-36 -4 L-32 0 L-36 4" fill="none" stroke="#38BDF8" stroke-width="1.5" stroke-linecap="round"/>
<path d="M36 -4 L32 0 L36 4" fill="none" stroke="#38BDF8" stroke-width="1.5" stroke-linecap="round"/>
</g>
<g transform="translate(256, 412)" opacity="0.5">
<rect x="-40" y="0" width="3" height="10" rx="1.5" fill="#38BDF8"/>
<rect x="-30" y="-4" width="3" height="14" rx="1.5" fill="#38BDF8"/>
<rect x="-20" y="-8" width="3" height="18" rx="1.5" fill="#38BDF8"/>
<rect x="-10" y="-4" width="3" height="14" rx="1.5" fill="#38BDF8"/>
<rect x="7" y="-4" width="3" height="14" rx="1.5" fill="#38BDF8"/>
<rect x="17" y="-8" width="3" height="18" rx="1.5" fill="#38BDF8"/>
<rect x="27" y="-4" width="3" height="14" rx="1.5" fill="#38BDF8"/>
<rect x="37" y="0" width="3" height="10" rx="1.5" fill="#38BDF8"/>
</g>
</svg>
