<svg xmlns="http://www.w3.org/2000/svg" width="512" height="512" viewBox="0 0 512 512">
  <defs>
    <linearGradient id="bg" x1="0" y1="0" x2="1" y2="1">
      <stop offset="0%" stop-color="#0A0E1A"/>
      <stop offset="100%" stop-color="#111827"/>
    </linearGradient>
    <linearGradient id="shield" x1="0.5" y1="0" x2="0.5" y2="1">
      <stop offset="0%" stop-color="#34D399"/>
      <stop offset="100%" stop-color="#059669"/>
    </linearGradient>
    <linearGradient id="inner" x1="0.5" y1="0" x2="0.5" y2="1">
      <stop offset="0%" stop-color="#10B981"/>
      <stop offset="60%" stop-color="#047857"/>
    </linearGradient>
    <linearGradient id="glow" x1="0.5" y1="0" x2="0.5" y2="1">
      <stop offset="0%" stop-color="#6EE7B7" stop-opacity="0.3"/>
      <stop offset="100%" stop-color="#059669" stop-opacity="0"/>
    </linearGradient>
    <filter id="shadow" x="-20%" y="-20%" width="140%" height="140%">
      <feDropShadow dx="0" dy="4" stdDeviation="12" flood-color="#10B981" flood-opacity="0.25"/>
    </filter>
  </defs>
  <rect width="512" height="512" rx="96" fill="url(#bg)"/>
  <circle cx="256" cy="240" r="160" fill="url(#glow)"/>
  <path d="M256 68 L384 128 V248 C384 340 324 400 256 424 C188 400 128 340 128 248 V128 Z" fill="url(#shield)" filter="url(#shadow)"/>
  <path d="M256 92 L364 144 V248 C364 328 312 380 256 400 C200 380 148 328 148 248 V144 Z" fill="url(#bg)"/>
  <g transform="translate(256, 244)">
    <ellipse cx="0" cy="0" rx="68" ry="44" fill="none" stroke="url(#inner)" stroke-width="6"/>
    <circle cx="0" cy="0" r="24" fill="url(#inner)"/>
    <circle cx="0" cy="0" r="10" fill="#0A0E1A"/>
    <circle cx="6" cy="-6" r="4" fill="#6EE7B7" opacity="0.8"/>
  </g>
  <g opacity="0.6">
    <rect x="208" y="320" width="4" height="16" rx="2" fill="#34D399"/>
    <rect x="220" y="314" width="4" height="22" rx="2" fill="#34D399"/>
    <rect x="232" y="308" width="4" height="28" rx="2" fill="#34D399"/>
    <rect x="276" y="308" width="4" height="28" rx="2" fill="#34D399"/>
    <rect x="288" y="314" width="4" height="22" rx="2" fill="#34D399"/>
    <rect x="300" y="320" width="4" height="16" rx="2" fill="#34D399"/>
  </g>
</svg>
